<svg width="71" height="74" viewBox="0 0 71 74" fill="none" xmlns="http://www.w3.org/2000/svg">
<g opacity="0.8">
<g clip-path="url(#clip0_9_889)">
<path d="M43.1855 14.7018V28.3459C43.1855 28.8906 42.8812 29.3893 42.3969 29.6386L31.5156 35.2344C31.0976 35.4488 30.6041 35.4489 30.1859 35.2344L19.3046 29.6386C18.8203 29.3893 18.516 28.8906 18.516 28.3459V14.7018C18.516 14.1574 18.8204 13.6575 19.3046 13.4091L30.1859 7.8133C30.6032 7.59865 31.0983 7.59865 31.5156 7.8133L42.3969 13.4091C42.8788 13.6572 43.1855 14.1549 43.1855 14.7018Z" fill="#EBEBEB"/>
<path d="M30.8508 35.3952C30.6224 35.3952 30.3946 35.3414 30.1859 35.2344L19.3046 29.6386C18.8203 29.3893 18.516 28.8906 18.516 28.3459V14.7018C18.516 14.4177 18.5985 14.1463 18.7468 13.9161L30.8508 20.1576V35.3952Z" fill="black" fill-opacity="0.23"/>
<path d="M43.1856 14.7017V28.3459C43.1856 28.8906 42.8813 29.3893 42.397 29.6386L31.5157 35.2344C31.307 35.3414 31.0792 35.3952 30.8508 35.3952C30.8508 35.321 30.8508 20.2269 30.8508 20.1576C30.865 20.1504 42.9603 13.9554 42.9739 13.9472C43.1103 14.1702 43.1856 14.4303 43.1856 14.7017Z" fill="black" fill-opacity="0.36"/>
<path d="M30.8508 20.1576V35.3952C30.6224 35.3952 30.3946 35.3414 30.1859 35.2344L19.3047 29.6386C18.3628 29.1538 18.2185 27.7709 19.1369 27.6069C23.6007 26.8092 27.1698 24.0664 29.3447 20.199C29.5433 19.8458 29.9842 19.711 30.3444 19.8966L30.8508 20.1576Z" fill="black" fill-opacity="0.31"/>
<path d="M42.6154 12.9837L31.7342 7.38798C31.181 7.1035 30.5204 7.1035 29.9672 7.38798L19.0861 12.9837C18.4395 13.3163 18.0378 13.9745 18.0378 14.7017V28.346C18.0378 29.0732 18.4395 29.7314 19.0861 30.064L29.9673 35.6597C30.5205 35.9442 31.181 35.9443 31.7343 35.6597L42.6154 30.064C43.2621 29.7314 43.6637 29.0732 43.6637 28.346V14.7017C43.6637 13.9745 43.262 13.3162 42.6154 12.9837ZM42.707 28.346C42.707 28.7131 42.5043 29.0454 42.1778 29.2132L31.2967 34.809C31.0174 34.9525 30.684 34.9525 30.4047 34.809L19.5236 29.2132C19.1972 29.0453 18.9944 28.7131 18.9944 28.346V14.7017C18.9944 14.3346 19.1972 14.0023 19.5236 13.8345C31.2629 7.79743 30.5127 8.13106 30.8508 8.13106C31.1903 8.13106 30.4439 7.80018 42.1621 13.8263L30.8515 19.6201L21.621 14.8599C21.3863 14.7389 21.0977 14.8311 20.9766 15.0659C20.8555 15.3007 20.9477 15.5891 21.1825 15.7102L30.3724 20.4494V32.349C30.3724 32.6132 30.5866 32.8273 30.8508 32.8273C31.1149 32.8273 31.3291 32.6132 31.3291 32.349V20.4503L42.7037 14.6237C42.7089 14.6897 42.707 28.251 42.707 28.346Z" fill="black"/>
</g>
<g clip-path="url(#clip1_9_889)">
<path d="M60.4046 45.5526V59.1968C60.4046 59.7415 60.1003 60.2401 59.616 60.4894L48.7347 66.0852C48.3167 66.2996 47.8232 66.2997 47.405 66.0852L36.5237 60.4894C36.0394 60.2401 35.7351 59.7415 35.7351 59.1968V45.5526C35.7351 45.0083 36.0396 44.5083 36.5237 44.2599L47.405 38.6641C47.8223 38.4495 48.3174 38.4495 48.7347 38.6641L59.616 44.2599C60.0979 44.508 60.4046 45.0057 60.4046 45.5526Z" fill="#EBEBEB"/>
<path d="M48.0699 66.2461C47.8415 66.2461 47.6137 66.1922 47.405 66.0852L36.5237 60.4894C36.0394 60.2401 35.7351 59.7415 35.7351 59.1968V45.5526C35.7351 45.2686 35.8176 44.9971 35.9659 44.7669L48.0699 51.0085V66.2461Z" fill="black" fill-opacity="0.23"/>
<path d="M60.4046 45.5526V59.1968C60.4046 59.7415 60.1003 60.2401 59.616 60.4894L48.7347 66.0852C48.526 66.1923 48.2982 66.2461 48.0698 66.2461C48.0698 66.1719 48.0698 51.0778 48.0698 51.0085C48.084 51.0012 60.1793 44.8062 60.1929 44.798C60.3293 45.0211 60.4046 45.2811 60.4046 45.5526Z" fill="black" fill-opacity="0.36"/>
<path d="M48.0698 51.0085V66.2461C47.8414 66.2461 47.6136 66.1923 47.4049 66.0852L36.5236 60.4895C35.5818 60.0046 35.4375 58.6218 36.3559 58.4577C40.8197 57.6601 44.3888 54.9172 46.5637 51.0499C46.7623 50.6966 47.2032 50.5618 47.5634 50.7475L48.0698 51.0085Z" fill="black" fill-opacity="0.31"/>
<path d="M59.8345 43.8346L48.9533 38.2388C48.4001 37.9544 47.7395 37.9544 47.1863 38.2388L36.3053 43.8346C35.6586 44.1671 35.257 44.8254 35.257 45.5525V59.1969C35.257 59.9241 35.6586 60.5823 36.3053 60.9149L47.1864 66.5106C47.7396 66.7951 48.4001 66.7951 48.9534 66.5106L59.8345 60.9149C60.4812 60.5823 60.8828 59.9241 60.8828 59.1969V45.5525C60.8828 44.8254 60.4811 44.1671 59.8345 43.8346ZM59.9261 59.1969C59.9261 59.5639 59.7234 59.8963 59.3969 60.0641L48.5158 65.6598C48.2365 65.8034 47.9031 65.8034 47.6238 65.6598L36.7428 60.0641C36.4164 59.8962 36.2135 59.5639 36.2135 59.1969V45.5525C36.2135 45.1855 36.4163 44.8532 36.7428 44.6853C48.4821 38.6483 47.7318 38.9819 48.0699 38.9819C48.4094 38.9819 47.663 38.651 59.3812 44.6772L48.0706 50.471L38.8401 45.7108C38.6054 45.5897 38.3169 45.6819 38.1957 45.9167C38.0746 46.1515 38.1668 46.4399 38.4016 46.5611L47.5915 51.3002V63.1999C47.5915 63.464 47.8057 63.6782 48.0699 63.6782C48.334 63.6782 48.5482 63.464 48.5482 63.1999V51.3011L59.9228 45.4746C59.928 45.5406 59.9261 59.1019 59.9261 59.1969Z" fill="black"/>
</g>
<g clip-path="url(#clip2_9_889)">
<path d="M65.7161 17.0692L60.5506 29.6977C60.3444 30.2019 59.8739 30.5482 59.3312 30.5956L47.1414 31.6553C46.6733 31.6955 46.2165 31.5087 45.9107 31.1519L37.9579 21.8531C37.604 21.439 37.5111 20.8622 37.7173 20.3581L42.8829 7.72951C43.089 7.2257 43.5601 6.87821 44.1022 6.83164L56.292 5.77192C56.7596 5.73125 57.2178 5.91868 57.5228 6.27535L65.4756 15.5742C65.8277 15.9862 65.9232 16.563 65.7161 17.0692Z" fill="#EBEBEB"/>
<path d="M46.4651 31.5525C46.2537 31.466 46.0632 31.33 45.9106 31.1519L37.9578 21.8531C37.604 21.439 37.5111 20.8622 37.7173 20.3581L42.8829 7.72952C42.9904 7.46665 43.1695 7.24665 43.3939 7.08973L52.2339 17.4491L46.4651 31.5525Z" fill="black" fill-opacity="0.23"/>
<path d="M65.7162 17.0691L60.5506 29.6977C60.3444 30.2019 59.8739 30.5482 59.3313 30.5956L47.1414 31.6553C46.9078 31.6754 46.6766 31.6389 46.4652 31.5525C46.4933 31.4838 52.2078 17.5132 52.234 17.4491C52.2498 17.4477 65.7902 16.293 65.8059 16.2906C65.8477 16.5487 65.8189 16.8179 65.7162 17.0691Z" fill="black" fill-opacity="0.36"/>
<path d="M52.234 17.4491L46.4651 31.5525C46.2537 31.466 46.0633 31.33 45.9107 31.1519L37.9579 21.8531C37.2697 21.0478 37.6596 19.7132 38.5718 19.9091C43.0053 20.8608 47.3472 19.6733 50.8243 16.9172C51.1419 16.6655 51.601 16.7076 51.8641 17.0159L52.234 17.4491Z" fill="black" fill-opacity="0.31"/>
<path d="M65.8388 15.2632L57.8861 5.96447C57.4818 5.49171 56.8704 5.24163 56.2507 5.29551L44.061 6.35523C43.3366 6.41822 42.7157 6.87539 42.4404 7.54843L37.2747 20.1772C36.9994 20.8502 37.122 21.6115 37.5946 22.1641L45.5473 31.4628C45.9516 31.9356 46.5629 32.1857 47.1828 32.1318L59.3725 31.0721C60.0969 31.0091 60.7178 30.5519 60.9931 29.8789L66.1588 17.2502C66.434 16.5771 66.3115 15.8157 65.8388 15.2632ZM60.1076 29.5167C59.9687 29.8564 59.6552 30.0872 59.2895 30.119L47.0998 31.1787C46.787 31.2058 46.4784 31.0796 46.2743 30.841L38.3216 21.5423C38.0831 21.2634 38.0212 20.879 38.1601 20.5393L43.3257 7.91059C43.4647 7.57085 43.7782 7.34003 44.1439 7.30829C57.2949 6.16502 56.4742 6.18978 56.7871 6.31776C57.1014 6.44631 56.5358 5.85747 65.1003 15.8715L52.4382 16.9519L45.6969 9.05145C45.5255 8.85054 45.2235 8.82664 45.0225 8.99809C44.8215 9.16958 44.7977 9.47144 44.9691 9.67245L51.6808 17.5381L47.1757 28.5519C47.0757 28.7964 47.1928 29.0757 47.4373 29.1757C47.6818 29.2757 47.9611 29.1586 48.0611 28.9141L52.5659 17.9011L65.2997 16.8145C65.2796 16.8776 60.1436 29.4288 60.1076 29.5167Z" fill="black"/>
</g>
<g clip-path="url(#clip3_9_889)">
<path d="M26.6839 43.4002V57.0444C26.6839 57.5891 26.3796 58.0877 25.8953 58.3371L15.014 63.9328C14.596 64.1473 14.1025 64.1473 13.6843 63.9328L2.80304 58.3371C2.31874 58.0877 2.0144 57.5891 2.0144 57.0444V43.4002C2.0144 42.8559 2.31886 42.3559 2.80304 42.1075L13.6843 36.5118C14.1016 36.2971 14.5967 36.2971 15.014 36.5118L25.8953 42.1075C26.3772 42.3556 26.6839 42.8534 26.6839 43.4002Z" fill="#EBEBEB"/>
<path d="M14.3492 64.0937C14.1208 64.0937 13.893 64.0399 13.6843 63.9328L2.80304 58.3371C2.31874 58.0877 2.0144 57.5891 2.0144 57.0444V43.4002C2.0144 43.1162 2.09691 42.8448 2.2452 42.6146L14.3492 48.8561V64.0937Z" fill="black" fill-opacity="0.23"/>
<path d="M26.6839 43.4002V57.0444C26.6839 57.5891 26.3796 58.0877 25.8953 58.337L15.014 63.9328C14.8053 64.0398 14.5775 64.0937 14.3491 64.0937C14.3491 64.0195 14.3491 48.9254 14.3491 48.8561C14.3633 48.8488 26.4586 42.6538 26.4722 42.6456C26.6086 42.8686 26.6839 43.1287 26.6839 43.4002Z" fill="black" fill-opacity="0.36"/>
<path d="M14.3491 48.8561V64.0937C14.1207 64.0937 13.8929 64.0399 13.6842 63.9328L2.80294 58.337C1.86112 57.8522 1.71679 56.4694 2.63523 56.3053C7.09901 55.5077 10.6681 52.7648 12.843 48.8975C13.0416 48.5442 13.4825 48.4094 13.8427 48.5951L14.3491 48.8561Z" fill="black" fill-opacity="0.31"/>
<path d="M26.1138 41.6822L15.2326 36.0864C14.6794 35.802 14.0188 35.802 13.4656 36.0864L2.58456 41.6822C1.93793 42.0147 1.53625 42.673 1.53625 43.4001V57.0445C1.53625 57.7717 1.93793 58.4299 2.58456 58.7624L13.4657 64.3582C14.0189 64.6427 14.6794 64.6427 15.2327 64.3582L26.1138 58.7624C26.7605 58.4299 27.1621 57.7717 27.1621 57.0445V43.4001C27.1621 42.673 26.7604 42.0147 26.1138 41.6822ZM26.2054 57.0445C26.2054 57.4115 26.0027 57.7439 25.6762 57.9117L14.7951 63.5074C14.5158 63.651 14.1824 63.651 13.9031 63.5074L3.02205 57.9117C2.69565 57.7438 2.49284 57.4115 2.49284 57.0445V43.4001C2.49284 43.0331 2.69559 42.7008 3.02205 42.5329C14.7614 36.4959 14.0111 36.8295 14.3492 36.8295C14.6887 36.8295 13.9423 36.4986 25.6605 42.5248L14.3499 48.3185L5.11938 43.5584C4.8847 43.4373 4.59615 43.5295 4.47501 43.7643C4.35394 43.9991 4.44614 44.2875 4.68093 44.4087L13.8708 49.1478V61.0475C13.8708 61.3116 14.085 61.5258 14.3492 61.5258C14.6133 61.5258 14.8275 61.3116 14.8275 61.0475V49.1487L26.2021 43.3222C26.2073 43.3882 26.2054 56.9495 26.2054 57.0445Z" fill="black"/>
</g>
<g clip-path="url(#clip4_9_889)">
<path d="M26.6839 23.3113V36.9555C26.6839 37.5002 26.3796 37.9988 25.8953 38.2481L15.014 43.8439C14.596 44.0583 14.1025 44.0584 13.6843 43.8439L2.80304 38.2481C2.31874 37.9988 2.0144 37.5002 2.0144 36.9555V23.3113C2.0144 22.767 2.31886 22.267 2.80304 22.0186L13.6843 16.4228C14.1016 16.2082 14.5967 16.2082 15.014 16.4228L25.8953 22.0186C26.3772 22.2667 26.6839 22.7644 26.6839 23.3113Z" fill="#EBEBEB"/>
<path d="M14.3492 44.0048C14.1208 44.0048 13.893 43.9509 13.6843 43.8439L2.80304 38.2481C2.31874 37.9988 2.0144 37.5002 2.0144 36.9555V23.3113C2.0144 23.0273 2.09691 22.7558 2.2452 22.5256L14.3492 28.7672V44.0048Z" fill="black" fill-opacity="0.23"/>
<path d="M26.6839 23.3113V36.9555C26.6839 37.5002 26.3796 37.9988 25.8953 38.2481L15.014 43.8439C14.8053 43.9509 14.5775 44.0048 14.3491 44.0048C14.3491 43.9306 14.3491 28.8365 14.3491 28.7672C14.3633 28.7599 26.4586 22.5649 26.4722 22.5567C26.6086 22.7798 26.6839 23.0398 26.6839 23.3113Z" fill="black" fill-opacity="0.36"/>
<path d="M14.3491 28.7672V44.0048C14.1207 44.0048 13.8929 43.951 13.6842 43.8439L2.80294 38.2481C1.86112 37.7633 1.71679 36.3805 2.63523 36.2164C7.09901 35.4188 10.6681 32.6759 12.843 28.8086C13.0416 28.4553 13.4825 28.3205 13.8427 28.5062L14.3491 28.7672Z" fill="black" fill-opacity="0.31"/>
<path d="M26.1138 21.5933L15.2326 15.9975C14.6794 15.7131 14.0188 15.7131 13.4656 15.9975L2.58456 21.5933C1.93793 21.9258 1.53625 22.5841 1.53625 23.3112V36.9556C1.53625 37.6828 1.93793 38.341 2.58456 38.6735L13.4657 44.2693C14.0189 44.5538 14.6794 44.5538 15.2327 44.2693L26.1138 38.6735C26.7605 38.341 27.1621 37.6828 27.1621 36.9556V23.3112C27.1621 22.5841 26.7604 21.9258 26.1138 21.5933ZM26.2054 36.9556C26.2054 37.3226 26.0027 37.655 25.6762 37.8228L14.7951 43.4185C14.5158 43.5621 14.1824 43.5621 13.9031 43.4185L3.02205 37.8228C2.69565 37.6549 2.49284 37.3226 2.49284 36.9556V23.3112C2.49284 22.9442 2.69559 22.6119 3.02205 22.444C14.7614 16.407 14.0111 16.7406 14.3492 16.7406C14.6887 16.7406 13.9423 16.4097 25.6605 22.4359L14.3499 28.2297L5.11938 23.4695C4.8847 23.3484 4.59615 23.4406 4.47501 23.6754C4.35394 23.9102 4.44614 24.1986 4.68093 24.3198L13.8708 29.0589V40.9586C13.8708 41.2227 14.085 41.4369 14.3492 41.4369C14.6133 41.4369 14.8275 41.2227 14.8275 40.9586V29.0598L26.2021 23.2333C26.2073 23.2993 26.2054 36.8606 26.2054 36.9556Z" fill="black"/>
</g>
<g clip-path="url(#clip5_9_889)">
<path d="M43.1855 52.0097V65.6539C43.1855 66.1986 42.8812 66.6973 42.3969 66.9466L31.5156 72.5424C31.0976 72.7568 30.6041 72.7568 30.1859 72.5424L19.3046 66.9466C18.8203 66.6973 18.516 66.1986 18.516 65.6539V52.0097C18.516 51.4654 18.8204 50.9654 19.3046 50.7171L30.1859 45.1213C30.6032 44.9066 31.0983 44.9066 31.5156 45.1213L42.3969 50.7171C42.8788 50.9651 43.1855 51.4629 43.1855 52.0097Z" fill="#EBEBEB"/>
<path d="M30.8508 72.7032C30.6224 72.7032 30.3946 72.6494 30.1859 72.5424L19.3046 66.9466C18.8203 66.6973 18.516 66.1986 18.516 65.6539V52.0097C18.516 51.7257 18.5985 51.4543 18.7468 51.2241L30.8508 57.4656V72.7032Z" fill="black" fill-opacity="0.23"/>
<path d="M43.1856 52.0097V65.6539C43.1856 66.1986 42.8813 66.6973 42.397 66.9466L31.5157 72.5424C31.307 72.6494 31.0792 72.7032 30.8508 72.7032C30.8508 72.629 30.8508 57.5349 30.8508 57.4656C30.865 57.4584 42.9603 51.2634 42.9739 51.2552C43.1103 51.4782 43.1856 51.7383 43.1856 52.0097Z" fill="black" fill-opacity="0.36"/>
<path d="M30.8508 57.4656V72.7032C30.6224 72.7032 30.3946 72.6494 30.1859 72.5424L19.3047 66.9466C18.3628 66.4618 18.2185 65.0789 19.1369 64.9149C23.6007 64.1173 27.1698 61.3744 29.3447 57.507C29.5433 57.1538 29.9842 57.019 30.3444 57.2046L30.8508 57.4656Z" fill="black" fill-opacity="0.31"/>
<path d="M42.6154 50.2917L31.7342 44.696C31.181 44.4115 30.5204 44.4115 29.9672 44.696L19.0861 50.2917C18.4395 50.6243 18.0378 51.2825 18.0378 52.0097V65.654C18.0378 66.3812 18.4395 67.0394 19.0861 67.372L29.9673 72.9677C30.5205 73.2522 31.181 73.2523 31.7343 72.9677L42.6154 67.372C43.2621 67.0394 43.6637 66.3812 43.6637 65.654V52.0097C43.6637 51.2825 43.262 50.6242 42.6154 50.2917ZM42.707 65.654C42.707 66.0211 42.5043 66.3534 42.1778 66.5212L31.2967 72.117C31.0174 72.2605 30.684 72.2605 30.4047 72.117L19.5236 66.5212C19.1972 66.3534 18.9944 66.0211 18.9944 65.654V52.0097C18.9944 51.6426 19.1972 51.3103 19.5236 51.1425C31.2629 45.1054 30.5127 45.4391 30.8508 45.4391C31.1903 45.4391 30.4439 45.1082 42.1621 51.1344L30.8515 56.9281L21.621 52.1679C21.3863 52.0469 21.0977 52.1391 20.9766 52.3739C20.8555 52.6087 20.9477 52.8971 21.1825 53.0182L30.3724 57.7574V69.657C30.3724 69.9212 30.5866 70.1353 30.8508 70.1353C31.1149 70.1353 31.3291 69.9212 31.3291 69.657V57.7583L42.7037 51.9317C42.7089 51.9977 42.707 65.559 42.707 65.654Z" fill="black"/>
</g>
<g clip-path="url(#clip6_9_889)">
<path d="M43.1855 31.9208V45.565C43.1855 46.1097 42.8812 46.6083 42.3969 46.8577L31.5156 52.4534C31.0976 52.6679 30.6041 52.6679 30.1859 52.4534L19.3046 46.8577C18.8203 46.6083 18.516 46.1097 18.516 45.565V31.9208C18.516 31.3765 18.8204 30.8765 19.3046 30.6281L30.1859 25.0324C30.6032 24.8177 31.0983 24.8177 31.5156 25.0324L42.3969 30.6281C42.8788 30.8762 43.1855 31.374 43.1855 31.9208Z" fill="#EBEBEB"/>
<path d="M30.8508 52.6143C30.6224 52.6143 30.3946 52.5605 30.1859 52.4534L19.3046 46.8577C18.8203 46.6083 18.516 46.1097 18.516 45.565V31.9208C18.516 31.6368 18.5985 31.3654 18.7468 31.1352L30.8508 37.3767V52.6143Z" fill="black" fill-opacity="0.23"/>
<path d="M43.1856 31.9208V45.565C43.1856 46.1097 42.8813 46.6083 42.397 46.8577L31.5157 52.4535C31.307 52.5605 31.0792 52.6143 30.8508 52.6143C30.8508 52.5401 30.8508 37.446 30.8508 37.3767C30.865 37.3695 42.9603 31.1745 42.9739 31.1663C43.1103 31.3893 43.1856 31.6494 43.1856 31.9208Z" fill="black" fill-opacity="0.36"/>
<path d="M30.8508 37.3767V52.6143C30.6224 52.6143 30.3946 52.5605 30.1859 52.4535L19.3047 46.8577C18.3628 46.3728 18.2185 44.99 19.1369 44.8259C23.6007 44.0283 27.1698 41.2854 29.3447 37.4181C29.5433 37.0648 29.9842 36.9301 30.3444 37.1157L30.8508 37.3767Z" fill="black" fill-opacity="0.31"/>
<path d="M42.6154 30.2028L31.7342 24.6071C31.181 24.3226 30.5204 24.3226 29.9672 24.6071L19.0861 30.2028C18.4395 30.5354 18.0378 31.1936 18.0378 31.9208V45.5651C18.0378 46.2923 18.4395 46.9505 19.0861 47.2831L29.9673 52.8788C30.5205 53.1633 31.181 53.1633 31.7343 52.8788L42.6154 47.2831C43.2621 46.9505 43.6637 46.2923 43.6637 45.5651V31.9208C43.6637 31.1936 43.262 30.5353 42.6154 30.2028ZM42.707 45.5651C42.707 45.9322 42.5043 46.2645 42.1778 46.4323L31.2967 52.028C31.0174 52.1716 30.684 52.1716 30.4047 52.028L19.5236 46.4323C19.1972 46.2644 18.9944 45.9322 18.9944 45.5651V31.9208C18.9944 31.5537 19.1972 31.2214 19.5236 31.0536C31.2629 25.0165 30.5127 25.3501 30.8508 25.3501C31.1903 25.3501 30.4439 25.0193 42.1621 31.0454L30.8515 36.8392L21.621 32.079C21.3863 31.9579 21.0977 32.0501 20.9766 32.2849C20.8555 32.5197 20.9477 32.8082 21.1825 32.9293L30.3724 37.6685V49.5681C30.3724 49.8322 30.5866 50.0464 30.8508 50.0464C31.1149 50.0464 31.3291 49.8322 31.3291 49.5681V37.6694L42.7037 31.8428C42.7089 31.9088 42.707 45.4701 42.707 45.5651Z" fill="black"/>
</g>
</g>
<defs>
<clipPath id="clip0_9_889">
<rect width="28.6985" height="28.6985" fill="white" transform="translate(16.5016 7.17462)"/>
</clipPath>
<clipPath id="clip1_9_889">
<rect width="28.6985" height="28.6985" fill="white" transform="translate(33.7206 38.0255)"/>
</clipPath>
<clipPath id="clip2_9_889">
<rect width="28.6985" height="28.6985" fill="white" transform="translate(43.868) rotate(22.2464)"/>
</clipPath>
<clipPath id="clip3_9_889">
<rect width="28.6985" height="28.6985" fill="white" transform="translate(0 35.8731)"/>
</clipPath>
<clipPath id="clip4_9_889">
<rect width="28.6985" height="28.6985" fill="white" transform="translate(0 15.7841)"/>
</clipPath>
<clipPath id="clip5_9_889">
<rect width="28.6985" height="28.6985" fill="white" transform="translate(16.5016 44.4826)"/>
</clipPath>
<clipPath id="clip6_9_889">
<rect width="28.6985" height="28.6985" fill="white" transform="translate(16.5016 24.3937)"/>
</clipPath>
</defs>
</svg>
