<svg width="16" height="16" viewBox="0 0 16 16" fill="none" xmlns="http://www.w3.org/2000/svg">
<path d="M6.66666 14.6667V10.2867" stroke="currentColor" stroke-width="1.33333" stroke-linecap="round" stroke-linejoin="round"/>
<path d="M8 7.33334H8.00667" stroke="currentColor" stroke-width="1.33333" stroke-linecap="round" stroke-linejoin="round"/>
<path d="M8 4.66666H8.00667" stroke="currentColor" stroke-width="1.33333" stroke-linecap="round" stroke-linejoin="round"/>
<path d="M9.33334 10.2867V14.6667" stroke="currentColor" stroke-width="1.33333" stroke-linecap="round" stroke-linejoin="round"/>
<path d="M10 10.6667C9.42301 10.2339 8.72123 10 8 10C7.27877 10 6.57699 10.2339 6 10.6667" stroke="currentColor" stroke-width="1.33333" stroke-linecap="round" stroke-linejoin="round"/>
<path d="M10.6667 7.33334H10.6733" stroke="currentColor" stroke-width="1.33333" stroke-linecap="round" stroke-linejoin="round"/>
<path d="M10.6667 4.66666H10.6733" stroke="currentColor" stroke-width="1.33333" stroke-linecap="round" stroke-linejoin="round"/>
<path d="M5.33334 7.33334H5.34001" stroke="currentColor" stroke-width="1.33333" stroke-linecap="round" stroke-linejoin="round"/>
<path d="M5.33334 4.66666H5.34001" stroke="currentColor" stroke-width="1.33333" stroke-linecap="round" stroke-linejoin="round"/>
<path d="M12 1.33334H3.99999C3.26361 1.33334 2.66666 1.93029 2.66666 2.66667V13.3333C2.66666 14.0697 3.26361 14.6667 3.99999 14.6667H12C12.7364 14.6667 13.3333 14.0697 13.3333 13.3333V2.66667C13.3333 1.93029 12.7364 1.33334 12 1.33334Z" stroke="currentColor" stroke-width="1.33333" stroke-linecap="round" stroke-linejoin="round"/>
</svg>
