<svg width="16" height="16" viewBox="0 0 16 16" fill="none" xmlns="http://www.w3.org/2000/svg">
<path d="M7.33333 11.3333C7.33333 12.0406 7.05238 12.7189 6.55229 13.219C6.05219 13.719 5.37391 14 4.66667 14C3.95942 14 3.28115 13.719 2.78105 13.219C2.28095 12.7189 2 12.0406 2 11.3333V3.33333C2 2.97971 2.14048 2.64057 2.39052 2.39052C2.64057 2.14048 2.97971 2 3.33333 2H6C6.35362 2 6.69276 2.14048 6.94281 2.39052C7.19286 2.64057 7.33333 2.97971 7.33333 3.33333V11.3333Z" stroke="currentColor" stroke-width="1.33333" stroke-linecap="round" stroke-linejoin="round"/>
<path d="M11.1333 8.66667H12.6667C13.0203 8.66667 13.3594 8.80715 13.6095 9.0572C13.8595 9.30724 14 9.64638 14 10V12.6667C14 13.0203 13.8595 13.3594 13.6095 13.6095C13.3594 13.8595 13.0203 14 12.6667 14H4.66666" stroke="currentColor" stroke-width="1.33333" stroke-linecap="round" stroke-linejoin="round"/>
<path d="M4.66666 11.3333H4.67332" stroke="currentColor" stroke-width="1.33333" stroke-linecap="round" stroke-linejoin="round"/>
<path d="M7.33334 5.33334L8.86667 3.80001C9.01554 3.65062 9.19248 3.53214 9.3873 3.45137C9.58212 3.37061 9.79099 3.32916 10.0019 3.32941C10.2128 3.32966 10.4216 3.3716 10.6162 3.45282C10.8108 3.53404 10.9875 3.65294 11.136 3.80268L12.4 5.06668C12.5537 5.21455 12.6763 5.39167 12.7606 5.58762C12.8449 5.78357 12.8892 5.99439 12.8908 6.20769C12.8924 6.42099 12.8513 6.63246 12.77 6.82967C12.6887 7.02687 12.5688 7.20583 12.4173 7.35601L6.60001 13.2" stroke="currentColor" stroke-width="1.33333" stroke-linecap="round" stroke-linejoin="round"/>
</svg>
